%TF.GenerationSoftware,KiCad,Pcbnew,(6.0.8)*%
%TF.CreationDate,2024-06-01T23:25:37+02:00*%
%TF.ProjectId,micropad,6d696372-6f70-4616-942e-6b696361645f,rev?*%
%TF.SameCoordinates,Original*%
%TF.FileFunction,Copper,L1,Top*%
%TF.FilePolarity,Positive*%
%FSLAX46Y46*%
G04 Gerber Fmt 4.6, Leading zero omitted, Abs format (unit mm)*
G04 Created by KiCad (PCBNEW (6.0.8)) date 2024-06-01 23:25:37*
%MOMM*%
%LPD*%
G01*
G04 APERTURE LIST*
%TA.AperFunction,ComponentPad*%
%ADD10R,1.600000X1.600000*%
%TD*%
%TA.AperFunction,ComponentPad*%
%ADD11C,1.600000*%
%TD*%
%TA.AperFunction,ComponentPad*%
%ADD12C,2.500000*%
%TD*%
%TA.AperFunction,ComponentPad*%
%ADD13O,1.600000X1.600000*%
%TD*%
%TA.AperFunction,Conductor*%
%ADD14C,0.250000*%
%TD*%
G04 APERTURE END LIST*
D10*
X75670000Y-49850000D03*
D11*
X75670000Y-52390000D03*
X75670000Y-54930000D03*
X75670000Y-57470000D03*
X75670000Y-60010000D03*
X75670000Y-62550000D03*
X75670000Y-65090000D03*
X75670000Y-67630000D03*
X75670000Y-70170000D03*
X75670000Y-72710000D03*
X75670000Y-75250000D03*
X75670000Y-77790000D03*
X60430000Y-67630000D03*
X60430000Y-65090000D03*
X60430000Y-62550000D03*
X60430000Y-60010000D03*
X60430000Y-57470000D03*
X60430000Y-54930000D03*
X60430000Y-52390000D03*
X60430000Y-49850000D03*
D12*
X61090000Y-71080000D03*
X54740000Y-73620000D03*
D13*
X41270000Y-68260000D03*
D10*
X41270000Y-75880000D03*
D12*
X64250000Y-54600000D03*
X70600000Y-52060000D03*
X51530000Y-52020000D03*
X45180000Y-54560000D03*
D14*
X64250000Y-54600000D02*
X64250000Y-63810000D01*
X64250000Y-63810000D02*
X60430000Y-67630000D01*
X60430000Y-60010000D02*
X52440000Y-52020000D01*
X62080000Y-53270000D02*
X62080000Y-58360000D01*
X62080000Y-58360000D02*
X60430000Y-60010000D01*
X63290000Y-52060000D02*
X62080000Y-53270000D01*
X70600000Y-52060000D02*
X63290000Y-52060000D01*
X54740000Y-70780000D02*
X54740000Y-73620000D01*
X60430000Y-65090000D02*
X54740000Y-70780000D01*
X52480000Y-75880000D02*
X54740000Y-73620000D01*
X41270000Y-75880000D02*
X52480000Y-75880000D01*
X45180000Y-54560000D02*
X45180000Y-64350000D01*
X45180000Y-64350000D02*
X41270000Y-68260000D01*
X61090000Y-71080000D02*
X61900000Y-70270000D01*
X52440000Y-52020000D02*
X51530000Y-52020000D01*
M02*
