%TF.GenerationSoftware,KiCad,Pcbnew,(6.0.8)*%
%TF.CreationDate,2024-06-02T21:29:15+02:00*%
%TF.ProjectId,micropad,6d696372-6f70-4616-942e-6b696361645f,rev?*%
%TF.SameCoordinates,Original*%
%TF.FileFunction,Legend,Top*%
%TF.FilePolarity,Positive*%
%FSLAX46Y46*%
G04 Gerber Fmt 4.6, Leading zero omitted, Abs format (unit mm)*
G04 Created by KiCad (PCBNEW (6.0.8)) date 2024-06-02 21:29:15*
%MOMM*%
%LPD*%
G01*
G04 APERTURE LIST*
%ADD10C,0.150000*%
%ADD11C,0.120000*%
%ADD12R,1.600000X1.600000*%
%ADD13C,1.600000*%
%ADD14C,3.048000*%
%ADD15C,3.987800*%
%ADD16C,4.000000*%
%ADD17C,2.500000*%
%ADD18O,1.600000X1.600000*%
G04 APERTURE END LIST*
D10*
X59160000Y-79060000D02*
X76940000Y-79060000D01*
X76940000Y-79060000D02*
X76940000Y-48580000D01*
X76940000Y-48580000D02*
X71860000Y-48580000D01*
X71860000Y-48580000D02*
X71860000Y-46040000D01*
X71860000Y-46040000D02*
X64240000Y-46040000D01*
X64240000Y-46040000D02*
X64240000Y-48580000D01*
X64240000Y-48580000D02*
X59160000Y-48580000D01*
X59160000Y-48580000D02*
X59160000Y-79060000D01*
D11*
X65650000Y-69060000D02*
X51450000Y-69060000D01*
X65650000Y-83260000D02*
X65650000Y-69060000D01*
X51450000Y-83260000D02*
X65650000Y-83260000D01*
X51450000Y-69060000D02*
X51450000Y-83260000D01*
X60960000Y-50040000D02*
X60960000Y-64240000D01*
X60960000Y-64240000D02*
X75160000Y-64240000D01*
X75160000Y-64240000D02*
X75160000Y-50040000D01*
X75160000Y-50040000D02*
X60960000Y-50040000D01*
X56090000Y-50000000D02*
X41890000Y-50000000D01*
X56090000Y-64200000D02*
X56090000Y-50000000D01*
X41890000Y-64200000D02*
X56090000Y-64200000D01*
X41890000Y-50000000D02*
X41890000Y-64200000D01*
%LPC*%
D12*
X75670000Y-49850000D03*
D13*
X75670000Y-52390000D03*
X75670000Y-54930000D03*
X75670000Y-57470000D03*
X75670000Y-60010000D03*
X75670000Y-62550000D03*
X75670000Y-65090000D03*
X75670000Y-67630000D03*
X75670000Y-70170000D03*
X75670000Y-72710000D03*
X75670000Y-75250000D03*
X75670000Y-77790000D03*
X60430000Y-67630000D03*
X60430000Y-65090000D03*
X60430000Y-62550000D03*
X60430000Y-60010000D03*
X60430000Y-57470000D03*
X60430000Y-54930000D03*
X60430000Y-52390000D03*
X60430000Y-49850000D03*
D14*
X46592000Y-69160050D03*
X70468000Y-69160050D03*
D15*
X46592000Y-84370050D03*
X70468000Y-84370050D03*
D16*
X58550000Y-76160000D03*
D17*
X61090000Y-71080000D03*
X54740000Y-73620000D03*
D18*
X41270000Y-68260000D03*
D12*
X41270000Y-75880000D03*
D17*
X64250000Y-54600000D03*
X70600000Y-52060000D03*
D16*
X68060000Y-57140000D03*
X48990000Y-57100000D03*
D17*
X51530000Y-52020000D03*
X45180000Y-54560000D03*
M02*
