%TF.GenerationSoftware,KiCad,Pcbnew,(6.0.8)*%
%TF.CreationDate,2024-06-02T21:29:24+02:00*%
%TF.ProjectId,micropad,6d696372-6f70-4616-942e-6b696361645f,rev?*%
%TF.SameCoordinates,Original*%
%TF.FileFunction,Drillmap*%
%TF.FilePolarity,Positive*%
%FSLAX45Y45*%
G04 Gerber Fmt 4.5, Leading zero omitted, Abs format (unit mm)*
G04 Created by KiCad (PCBNEW (6.0.8)) date 2024-06-02 21:29:24*
%MOMM*%
%LPD*%
G01*
G04 APERTURE LIST*
%ADD10C,0.100000*%
%ADD11C,0.200000*%
%ADD12C,0.304800*%
%ADD13C,0.398780*%
%ADD14C,0.400000*%
G04 APERTURE END LIST*
D10*
X6418000Y-8440000D02*
G75*
G03*
X7069000Y-8882000I651000J258413D01*
G01*
X4639000Y-8881000D02*
G75*
G03*
X5290000Y-8440000I1852J698266D01*
G01*
X5290000Y-8440000D02*
X6418000Y-8440000D01*
X7770000Y-4845000D02*
X3945000Y-4850000D01*
X3940000Y-8182000D02*
G75*
G03*
X4639000Y-8881000I699000J0D01*
G01*
X7069000Y-8882000D02*
G75*
G03*
X7769000Y-8182000I0J700000D01*
G01*
X3940000Y-8182000D02*
X3945000Y-4850000D01*
X7769000Y-8182000D02*
X7770000Y-4845000D01*
D11*
D12*
X4506800Y-6763605D02*
X4811600Y-7068405D01*
X4811600Y-6763605D02*
X4506800Y-7068405D01*
X6894400Y-6763605D02*
X7199200Y-7068405D01*
X7199200Y-6763605D02*
X6894400Y-7068405D01*
D13*
X4858590Y-8437005D02*
G75*
G03*
X4858590Y-8437005I-199390J0D01*
G01*
X7246190Y-8437005D02*
G75*
G03*
X7246190Y-8437005I-199390J0D01*
G01*
D14*
X4899000Y-5510000D02*
X4899000Y-5910000D01*
X4699000Y-5710000D02*
X5099000Y-5710000D01*
X5855000Y-7416000D02*
X5855000Y-7816000D01*
X5655000Y-7616000D02*
X6055000Y-7616000D01*
X6806000Y-5514000D02*
X6806000Y-5914000D01*
X6606000Y-5714000D02*
X7006000Y-5714000D01*
D11*
X4192619Y-9197476D02*
X4192619Y-8997476D01*
X4240238Y-8997476D01*
X4268810Y-9007000D01*
X4287857Y-9026048D01*
X4297381Y-9045095D01*
X4306905Y-9083190D01*
X4306905Y-9111762D01*
X4297381Y-9149857D01*
X4287857Y-9168905D01*
X4268810Y-9187952D01*
X4240238Y-9197476D01*
X4192619Y-9197476D01*
X4392619Y-9197476D02*
X4392619Y-9064143D01*
X4392619Y-9102238D02*
X4402143Y-9083190D01*
X4411667Y-9073667D01*
X4430714Y-9064143D01*
X4449762Y-9064143D01*
X4516429Y-9197476D02*
X4516429Y-9064143D01*
X4516429Y-8997476D02*
X4506905Y-9007000D01*
X4516429Y-9016524D01*
X4525952Y-9007000D01*
X4516429Y-8997476D01*
X4516429Y-9016524D01*
X4640238Y-9197476D02*
X4621190Y-9187952D01*
X4611667Y-9168905D01*
X4611667Y-8997476D01*
X4745000Y-9197476D02*
X4725952Y-9187952D01*
X4716429Y-9168905D01*
X4716429Y-8997476D01*
X4973571Y-9197476D02*
X4973571Y-8997476D01*
X5040238Y-9140333D01*
X5106905Y-8997476D01*
X5106905Y-9197476D01*
X5287857Y-9197476D02*
X5287857Y-9092714D01*
X5278333Y-9073667D01*
X5259286Y-9064143D01*
X5221190Y-9064143D01*
X5202143Y-9073667D01*
X5287857Y-9187952D02*
X5268810Y-9197476D01*
X5221190Y-9197476D01*
X5202143Y-9187952D01*
X5192619Y-9168905D01*
X5192619Y-9149857D01*
X5202143Y-9130810D01*
X5221190Y-9121286D01*
X5268810Y-9121286D01*
X5287857Y-9111762D01*
X5383095Y-9064143D02*
X5383095Y-9264143D01*
X5383095Y-9073667D02*
X5402143Y-9064143D01*
X5440238Y-9064143D01*
X5459286Y-9073667D01*
X5468810Y-9083190D01*
X5478333Y-9102238D01*
X5478333Y-9159381D01*
X5468810Y-9178429D01*
X5459286Y-9187952D01*
X5440238Y-9197476D01*
X5402143Y-9197476D01*
X5383095Y-9187952D01*
X5564048Y-9178429D02*
X5573571Y-9187952D01*
X5564048Y-9197476D01*
X5554524Y-9187952D01*
X5564048Y-9178429D01*
X5564048Y-9197476D01*
X5564048Y-9073667D02*
X5573571Y-9083190D01*
X5564048Y-9092714D01*
X5554524Y-9083190D01*
X5564048Y-9073667D01*
X5564048Y-9092714D01*
X3735000Y-9427000D02*
X3935000Y-9627000D01*
X3935000Y-9427000D02*
X3735000Y-9627000D01*
X4173571Y-9417476D02*
X4297381Y-9417476D01*
X4230714Y-9493667D01*
X4259286Y-9493667D01*
X4278333Y-9503190D01*
X4287857Y-9512714D01*
X4297381Y-9531762D01*
X4297381Y-9579381D01*
X4287857Y-9598429D01*
X4278333Y-9607952D01*
X4259286Y-9617476D01*
X4202143Y-9617476D01*
X4183095Y-9607952D01*
X4173571Y-9598429D01*
X4383095Y-9598429D02*
X4392619Y-9607952D01*
X4383095Y-9617476D01*
X4373571Y-9607952D01*
X4383095Y-9598429D01*
X4383095Y-9617476D01*
X4516429Y-9417476D02*
X4535476Y-9417476D01*
X4554524Y-9427000D01*
X4564048Y-9436524D01*
X4573571Y-9455571D01*
X4583095Y-9493667D01*
X4583095Y-9541286D01*
X4573571Y-9579381D01*
X4564048Y-9598429D01*
X4554524Y-9607952D01*
X4535476Y-9617476D01*
X4516429Y-9617476D01*
X4497381Y-9607952D01*
X4487857Y-9598429D01*
X4478333Y-9579381D01*
X4468810Y-9541286D01*
X4468810Y-9493667D01*
X4478333Y-9455571D01*
X4487857Y-9436524D01*
X4497381Y-9427000D01*
X4516429Y-9417476D01*
X4754524Y-9484143D02*
X4754524Y-9617476D01*
X4706905Y-9407952D02*
X4659286Y-9550810D01*
X4783095Y-9550810D01*
X4887857Y-9503190D02*
X4868810Y-9493667D01*
X4859286Y-9484143D01*
X4849762Y-9465095D01*
X4849762Y-9455571D01*
X4859286Y-9436524D01*
X4868810Y-9427000D01*
X4887857Y-9417476D01*
X4925952Y-9417476D01*
X4945000Y-9427000D01*
X4954524Y-9436524D01*
X4964048Y-9455571D01*
X4964048Y-9465095D01*
X4954524Y-9484143D01*
X4945000Y-9493667D01*
X4925952Y-9503190D01*
X4887857Y-9503190D01*
X4868810Y-9512714D01*
X4859286Y-9522238D01*
X4849762Y-9541286D01*
X4849762Y-9579381D01*
X4859286Y-9598429D01*
X4868810Y-9607952D01*
X4887857Y-9617476D01*
X4925952Y-9617476D01*
X4945000Y-9607952D01*
X4954524Y-9598429D01*
X4964048Y-9579381D01*
X4964048Y-9541286D01*
X4954524Y-9522238D01*
X4945000Y-9512714D01*
X4925952Y-9503190D01*
X5049762Y-9617476D02*
X5049762Y-9484143D01*
X5049762Y-9503190D02*
X5059286Y-9493667D01*
X5078333Y-9484143D01*
X5106905Y-9484143D01*
X5125952Y-9493667D01*
X5135476Y-9512714D01*
X5135476Y-9617476D01*
X5135476Y-9512714D02*
X5145000Y-9493667D01*
X5164048Y-9484143D01*
X5192619Y-9484143D01*
X5211667Y-9493667D01*
X5221190Y-9512714D01*
X5221190Y-9617476D01*
X5316429Y-9617476D02*
X5316429Y-9484143D01*
X5316429Y-9503190D02*
X5325952Y-9493667D01*
X5345000Y-9484143D01*
X5373571Y-9484143D01*
X5392619Y-9493667D01*
X5402143Y-9512714D01*
X5402143Y-9617476D01*
X5402143Y-9512714D02*
X5411667Y-9493667D01*
X5430714Y-9484143D01*
X5459286Y-9484143D01*
X5478333Y-9493667D01*
X5487857Y-9512714D01*
X5487857Y-9617476D01*
X5878333Y-9407952D02*
X5706905Y-9665095D01*
X6135476Y-9417476D02*
X6154524Y-9417476D01*
X6173571Y-9427000D01*
X6183095Y-9436524D01*
X6192619Y-9455571D01*
X6202143Y-9493667D01*
X6202143Y-9541286D01*
X6192619Y-9579381D01*
X6183095Y-9598429D01*
X6173571Y-9607952D01*
X6154524Y-9617476D01*
X6135476Y-9617476D01*
X6116428Y-9607952D01*
X6106905Y-9598429D01*
X6097381Y-9579381D01*
X6087857Y-9541286D01*
X6087857Y-9493667D01*
X6097381Y-9455571D01*
X6106905Y-9436524D01*
X6116428Y-9427000D01*
X6135476Y-9417476D01*
X6287857Y-9598429D02*
X6297381Y-9607952D01*
X6287857Y-9617476D01*
X6278333Y-9607952D01*
X6287857Y-9598429D01*
X6287857Y-9617476D01*
X6487857Y-9617476D02*
X6373571Y-9617476D01*
X6430714Y-9617476D02*
X6430714Y-9417476D01*
X6411667Y-9446048D01*
X6392619Y-9465095D01*
X6373571Y-9474619D01*
X6564048Y-9436524D02*
X6573571Y-9427000D01*
X6592619Y-9417476D01*
X6640238Y-9417476D01*
X6659286Y-9427000D01*
X6668809Y-9436524D01*
X6678333Y-9455571D01*
X6678333Y-9474619D01*
X6668809Y-9503190D01*
X6554524Y-9617476D01*
X6678333Y-9617476D01*
X6802143Y-9417476D02*
X6821190Y-9417476D01*
X6840238Y-9427000D01*
X6849762Y-9436524D01*
X6859286Y-9455571D01*
X6868809Y-9493667D01*
X6868809Y-9541286D01*
X6859286Y-9579381D01*
X6849762Y-9598429D01*
X6840238Y-9607952D01*
X6821190Y-9617476D01*
X6802143Y-9617476D01*
X6783095Y-9607952D01*
X6773571Y-9598429D01*
X6764048Y-9579381D01*
X6754524Y-9541286D01*
X6754524Y-9493667D01*
X6764048Y-9455571D01*
X6773571Y-9436524D01*
X6783095Y-9427000D01*
X6802143Y-9417476D01*
X6992619Y-9417476D02*
X7011667Y-9417476D01*
X7030714Y-9427000D01*
X7040238Y-9436524D01*
X7049762Y-9455571D01*
X7059286Y-9493667D01*
X7059286Y-9541286D01*
X7049762Y-9579381D01*
X7040238Y-9598429D01*
X7030714Y-9607952D01*
X7011667Y-9617476D01*
X6992619Y-9617476D01*
X6973571Y-9607952D01*
X6964048Y-9598429D01*
X6954524Y-9579381D01*
X6945000Y-9541286D01*
X6945000Y-9493667D01*
X6954524Y-9455571D01*
X6964048Y-9436524D01*
X6973571Y-9427000D01*
X6992619Y-9417476D01*
X7135476Y-9417476D02*
X7135476Y-9455571D01*
X7211667Y-9417476D02*
X7211667Y-9455571D01*
X7506905Y-9693667D02*
X7497381Y-9684143D01*
X7478333Y-9655571D01*
X7468809Y-9636524D01*
X7459286Y-9607952D01*
X7449762Y-9560333D01*
X7449762Y-9522238D01*
X7459286Y-9474619D01*
X7468809Y-9446048D01*
X7478333Y-9427000D01*
X7497381Y-9398429D01*
X7506905Y-9388905D01*
X7573571Y-9436524D02*
X7583095Y-9427000D01*
X7602143Y-9417476D01*
X7649762Y-9417476D01*
X7668809Y-9427000D01*
X7678333Y-9436524D01*
X7687857Y-9455571D01*
X7687857Y-9474619D01*
X7678333Y-9503190D01*
X7564048Y-9617476D01*
X7687857Y-9617476D01*
X7925952Y-9617476D02*
X7925952Y-9417476D01*
X8011667Y-9617476D02*
X8011667Y-9512714D01*
X8002143Y-9493667D01*
X7983095Y-9484143D01*
X7954524Y-9484143D01*
X7935476Y-9493667D01*
X7925952Y-9503190D01*
X8135476Y-9617476D02*
X8116428Y-9607952D01*
X8106905Y-9598429D01*
X8097381Y-9579381D01*
X8097381Y-9522238D01*
X8106905Y-9503190D01*
X8116428Y-9493667D01*
X8135476Y-9484143D01*
X8164048Y-9484143D01*
X8183095Y-9493667D01*
X8192619Y-9503190D01*
X8202143Y-9522238D01*
X8202143Y-9579381D01*
X8192619Y-9598429D01*
X8183095Y-9607952D01*
X8164048Y-9617476D01*
X8135476Y-9617476D01*
X8316428Y-9617476D02*
X8297381Y-9607952D01*
X8287857Y-9588905D01*
X8287857Y-9417476D01*
X8468810Y-9607952D02*
X8449762Y-9617476D01*
X8411667Y-9617476D01*
X8392619Y-9607952D01*
X8383095Y-9588905D01*
X8383095Y-9512714D01*
X8392619Y-9493667D01*
X8411667Y-9484143D01*
X8449762Y-9484143D01*
X8468810Y-9493667D01*
X8478333Y-9512714D01*
X8478333Y-9531762D01*
X8383095Y-9550810D01*
X8554524Y-9607952D02*
X8573571Y-9617476D01*
X8611667Y-9617476D01*
X8630714Y-9607952D01*
X8640238Y-9588905D01*
X8640238Y-9579381D01*
X8630714Y-9560333D01*
X8611667Y-9550810D01*
X8583095Y-9550810D01*
X8564048Y-9541286D01*
X8554524Y-9522238D01*
X8554524Y-9512714D01*
X8564048Y-9493667D01*
X8583095Y-9484143D01*
X8611667Y-9484143D01*
X8630714Y-9493667D01*
X8706905Y-9693667D02*
X8716429Y-9684143D01*
X8735476Y-9655571D01*
X8745000Y-9636524D01*
X8754524Y-9607952D01*
X8764048Y-9560333D01*
X8764048Y-9522238D01*
X8754524Y-9474619D01*
X8745000Y-9446048D01*
X8735476Y-9427000D01*
X8716429Y-9398429D01*
X8706905Y-9388905D01*
X9068810Y-9693667D02*
X9059286Y-9684143D01*
X9040238Y-9655571D01*
X9030714Y-9636524D01*
X9021190Y-9607952D01*
X9011667Y-9560333D01*
X9011667Y-9522238D01*
X9021190Y-9474619D01*
X9030714Y-9446048D01*
X9040238Y-9427000D01*
X9059286Y-9398429D01*
X9068810Y-9388905D01*
X9145000Y-9484143D02*
X9145000Y-9617476D01*
X9145000Y-9503190D02*
X9154524Y-9493667D01*
X9173571Y-9484143D01*
X9202143Y-9484143D01*
X9221190Y-9493667D01*
X9230714Y-9512714D01*
X9230714Y-9617476D01*
X9354524Y-9617476D02*
X9335476Y-9607952D01*
X9325952Y-9598429D01*
X9316429Y-9579381D01*
X9316429Y-9522238D01*
X9325952Y-9503190D01*
X9335476Y-9493667D01*
X9354524Y-9484143D01*
X9383095Y-9484143D01*
X9402143Y-9493667D01*
X9411667Y-9503190D01*
X9421190Y-9522238D01*
X9421190Y-9579381D01*
X9411667Y-9598429D01*
X9402143Y-9607952D01*
X9383095Y-9617476D01*
X9354524Y-9617476D01*
X9478333Y-9484143D02*
X9554524Y-9484143D01*
X9506905Y-9417476D02*
X9506905Y-9588905D01*
X9516429Y-9607952D01*
X9535476Y-9617476D01*
X9554524Y-9617476D01*
X9773571Y-9484143D02*
X9773571Y-9684143D01*
X9773571Y-9493667D02*
X9792619Y-9484143D01*
X9830714Y-9484143D01*
X9849762Y-9493667D01*
X9859286Y-9503190D01*
X9868810Y-9522238D01*
X9868810Y-9579381D01*
X9859286Y-9598429D01*
X9849762Y-9607952D01*
X9830714Y-9617476D01*
X9792619Y-9617476D01*
X9773571Y-9607952D01*
X9983095Y-9617476D02*
X9964048Y-9607952D01*
X9954524Y-9588905D01*
X9954524Y-9417476D01*
X10145000Y-9617476D02*
X10145000Y-9512714D01*
X10135476Y-9493667D01*
X10116429Y-9484143D01*
X10078333Y-9484143D01*
X10059286Y-9493667D01*
X10145000Y-9607952D02*
X10125952Y-9617476D01*
X10078333Y-9617476D01*
X10059286Y-9607952D01*
X10049762Y-9588905D01*
X10049762Y-9569857D01*
X10059286Y-9550810D01*
X10078333Y-9541286D01*
X10125952Y-9541286D01*
X10145000Y-9531762D01*
X10211667Y-9484143D02*
X10287857Y-9484143D01*
X10240238Y-9417476D02*
X10240238Y-9588905D01*
X10249762Y-9607952D01*
X10268810Y-9617476D01*
X10287857Y-9617476D01*
X10430714Y-9607952D02*
X10411667Y-9617476D01*
X10373571Y-9617476D01*
X10354524Y-9607952D01*
X10345000Y-9588905D01*
X10345000Y-9512714D01*
X10354524Y-9493667D01*
X10373571Y-9484143D01*
X10411667Y-9484143D01*
X10430714Y-9493667D01*
X10440238Y-9512714D01*
X10440238Y-9531762D01*
X10345000Y-9550810D01*
X10611667Y-9617476D02*
X10611667Y-9417476D01*
X10611667Y-9607952D02*
X10592619Y-9617476D01*
X10554524Y-9617476D01*
X10535476Y-9607952D01*
X10525952Y-9598429D01*
X10516429Y-9579381D01*
X10516429Y-9522238D01*
X10525952Y-9503190D01*
X10535476Y-9493667D01*
X10554524Y-9484143D01*
X10592619Y-9484143D01*
X10611667Y-9493667D01*
X10687857Y-9693667D02*
X10697381Y-9684143D01*
X10716429Y-9655571D01*
X10725952Y-9636524D01*
X10735476Y-9607952D01*
X10745000Y-9560333D01*
X10745000Y-9522238D01*
X10735476Y-9474619D01*
X10725952Y-9446048D01*
X10716429Y-9427000D01*
X10697381Y-9398429D01*
X10687857Y-9388905D01*
X3935000Y-9847000D02*
G75*
G03*
X3935000Y-9847000I-100000J0D01*
G01*
X4173571Y-9737476D02*
X4297381Y-9737476D01*
X4230714Y-9813667D01*
X4259286Y-9813667D01*
X4278333Y-9823190D01*
X4287857Y-9832714D01*
X4297381Y-9851762D01*
X4297381Y-9899381D01*
X4287857Y-9918429D01*
X4278333Y-9927952D01*
X4259286Y-9937476D01*
X4202143Y-9937476D01*
X4183095Y-9927952D01*
X4173571Y-9918429D01*
X4383095Y-9918429D02*
X4392619Y-9927952D01*
X4383095Y-9937476D01*
X4373571Y-9927952D01*
X4383095Y-9918429D01*
X4383095Y-9937476D01*
X4487857Y-9937476D02*
X4525952Y-9937476D01*
X4545000Y-9927952D01*
X4554524Y-9918429D01*
X4573571Y-9889857D01*
X4583095Y-9851762D01*
X4583095Y-9775571D01*
X4573571Y-9756524D01*
X4564048Y-9747000D01*
X4545000Y-9737476D01*
X4506905Y-9737476D01*
X4487857Y-9747000D01*
X4478333Y-9756524D01*
X4468810Y-9775571D01*
X4468810Y-9823190D01*
X4478333Y-9842238D01*
X4487857Y-9851762D01*
X4506905Y-9861286D01*
X4545000Y-9861286D01*
X4564048Y-9851762D01*
X4573571Y-9842238D01*
X4583095Y-9823190D01*
X4697381Y-9823190D02*
X4678333Y-9813667D01*
X4668810Y-9804143D01*
X4659286Y-9785095D01*
X4659286Y-9775571D01*
X4668810Y-9756524D01*
X4678333Y-9747000D01*
X4697381Y-9737476D01*
X4735476Y-9737476D01*
X4754524Y-9747000D01*
X4764048Y-9756524D01*
X4773571Y-9775571D01*
X4773571Y-9785095D01*
X4764048Y-9804143D01*
X4754524Y-9813667D01*
X4735476Y-9823190D01*
X4697381Y-9823190D01*
X4678333Y-9832714D01*
X4668810Y-9842238D01*
X4659286Y-9861286D01*
X4659286Y-9899381D01*
X4668810Y-9918429D01*
X4678333Y-9927952D01*
X4697381Y-9937476D01*
X4735476Y-9937476D01*
X4754524Y-9927952D01*
X4764048Y-9918429D01*
X4773571Y-9899381D01*
X4773571Y-9861286D01*
X4764048Y-9842238D01*
X4754524Y-9832714D01*
X4735476Y-9823190D01*
X4887857Y-9823190D02*
X4868810Y-9813667D01*
X4859286Y-9804143D01*
X4849762Y-9785095D01*
X4849762Y-9775571D01*
X4859286Y-9756524D01*
X4868810Y-9747000D01*
X4887857Y-9737476D01*
X4925952Y-9737476D01*
X4945000Y-9747000D01*
X4954524Y-9756524D01*
X4964048Y-9775571D01*
X4964048Y-9785095D01*
X4954524Y-9804143D01*
X4945000Y-9813667D01*
X4925952Y-9823190D01*
X4887857Y-9823190D01*
X4868810Y-9832714D01*
X4859286Y-9842238D01*
X4849762Y-9861286D01*
X4849762Y-9899381D01*
X4859286Y-9918429D01*
X4868810Y-9927952D01*
X4887857Y-9937476D01*
X4925952Y-9937476D01*
X4945000Y-9927952D01*
X4954524Y-9918429D01*
X4964048Y-9899381D01*
X4964048Y-9861286D01*
X4954524Y-9842238D01*
X4945000Y-9832714D01*
X4925952Y-9823190D01*
X5049762Y-9937476D02*
X5049762Y-9804143D01*
X5049762Y-9823190D02*
X5059286Y-9813667D01*
X5078333Y-9804143D01*
X5106905Y-9804143D01*
X5125952Y-9813667D01*
X5135476Y-9832714D01*
X5135476Y-9937476D01*
X5135476Y-9832714D02*
X5145000Y-9813667D01*
X5164048Y-9804143D01*
X5192619Y-9804143D01*
X5211667Y-9813667D01*
X5221190Y-9832714D01*
X5221190Y-9937476D01*
X5316429Y-9937476D02*
X5316429Y-9804143D01*
X5316429Y-9823190D02*
X5325952Y-9813667D01*
X5345000Y-9804143D01*
X5373571Y-9804143D01*
X5392619Y-9813667D01*
X5402143Y-9832714D01*
X5402143Y-9937476D01*
X5402143Y-9832714D02*
X5411667Y-9813667D01*
X5430714Y-9804143D01*
X5459286Y-9804143D01*
X5478333Y-9813667D01*
X5487857Y-9832714D01*
X5487857Y-9937476D01*
X5878333Y-9727952D02*
X5706905Y-9985095D01*
X6135476Y-9737476D02*
X6154524Y-9737476D01*
X6173571Y-9747000D01*
X6183095Y-9756524D01*
X6192619Y-9775571D01*
X6202143Y-9813667D01*
X6202143Y-9861286D01*
X6192619Y-9899381D01*
X6183095Y-9918429D01*
X6173571Y-9927952D01*
X6154524Y-9937476D01*
X6135476Y-9937476D01*
X6116428Y-9927952D01*
X6106905Y-9918429D01*
X6097381Y-9899381D01*
X6087857Y-9861286D01*
X6087857Y-9813667D01*
X6097381Y-9775571D01*
X6106905Y-9756524D01*
X6116428Y-9747000D01*
X6135476Y-9737476D01*
X6287857Y-9918429D02*
X6297381Y-9927952D01*
X6287857Y-9937476D01*
X6278333Y-9927952D01*
X6287857Y-9918429D01*
X6287857Y-9937476D01*
X6487857Y-9937476D02*
X6373571Y-9937476D01*
X6430714Y-9937476D02*
X6430714Y-9737476D01*
X6411667Y-9766048D01*
X6392619Y-9785095D01*
X6373571Y-9794619D01*
X6668809Y-9737476D02*
X6573571Y-9737476D01*
X6564048Y-9832714D01*
X6573571Y-9823190D01*
X6592619Y-9813667D01*
X6640238Y-9813667D01*
X6659286Y-9823190D01*
X6668809Y-9832714D01*
X6678333Y-9851762D01*
X6678333Y-9899381D01*
X6668809Y-9918429D01*
X6659286Y-9927952D01*
X6640238Y-9937476D01*
X6592619Y-9937476D01*
X6573571Y-9927952D01*
X6564048Y-9918429D01*
X6745000Y-9737476D02*
X6878333Y-9737476D01*
X6792619Y-9937476D01*
X6992619Y-9737476D02*
X7011667Y-9737476D01*
X7030714Y-9747000D01*
X7040238Y-9756524D01*
X7049762Y-9775571D01*
X7059286Y-9813667D01*
X7059286Y-9861286D01*
X7049762Y-9899381D01*
X7040238Y-9918429D01*
X7030714Y-9927952D01*
X7011667Y-9937476D01*
X6992619Y-9937476D01*
X6973571Y-9927952D01*
X6964048Y-9918429D01*
X6954524Y-9899381D01*
X6945000Y-9861286D01*
X6945000Y-9813667D01*
X6954524Y-9775571D01*
X6964048Y-9756524D01*
X6973571Y-9747000D01*
X6992619Y-9737476D01*
X7135476Y-9737476D02*
X7135476Y-9775571D01*
X7211667Y-9737476D02*
X7211667Y-9775571D01*
X7506905Y-10013667D02*
X7497381Y-10004143D01*
X7478333Y-9975571D01*
X7468809Y-9956524D01*
X7459286Y-9927952D01*
X7449762Y-9880333D01*
X7449762Y-9842238D01*
X7459286Y-9794619D01*
X7468809Y-9766048D01*
X7478333Y-9747000D01*
X7497381Y-9718429D01*
X7506905Y-9708905D01*
X7573571Y-9756524D02*
X7583095Y-9747000D01*
X7602143Y-9737476D01*
X7649762Y-9737476D01*
X7668809Y-9747000D01*
X7678333Y-9756524D01*
X7687857Y-9775571D01*
X7687857Y-9794619D01*
X7678333Y-9823190D01*
X7564048Y-9937476D01*
X7687857Y-9937476D01*
X7925952Y-9937476D02*
X7925952Y-9737476D01*
X8011667Y-9937476D02*
X8011667Y-9832714D01*
X8002143Y-9813667D01*
X7983095Y-9804143D01*
X7954524Y-9804143D01*
X7935476Y-9813667D01*
X7925952Y-9823190D01*
X8135476Y-9937476D02*
X8116428Y-9927952D01*
X8106905Y-9918429D01*
X8097381Y-9899381D01*
X8097381Y-9842238D01*
X8106905Y-9823190D01*
X8116428Y-9813667D01*
X8135476Y-9804143D01*
X8164048Y-9804143D01*
X8183095Y-9813667D01*
X8192619Y-9823190D01*
X8202143Y-9842238D01*
X8202143Y-9899381D01*
X8192619Y-9918429D01*
X8183095Y-9927952D01*
X8164048Y-9937476D01*
X8135476Y-9937476D01*
X8316428Y-9937476D02*
X8297381Y-9927952D01*
X8287857Y-9908905D01*
X8287857Y-9737476D01*
X8468810Y-9927952D02*
X8449762Y-9937476D01*
X8411667Y-9937476D01*
X8392619Y-9927952D01*
X8383095Y-9908905D01*
X8383095Y-9832714D01*
X8392619Y-9813667D01*
X8411667Y-9804143D01*
X8449762Y-9804143D01*
X8468810Y-9813667D01*
X8478333Y-9832714D01*
X8478333Y-9851762D01*
X8383095Y-9870810D01*
X8554524Y-9927952D02*
X8573571Y-9937476D01*
X8611667Y-9937476D01*
X8630714Y-9927952D01*
X8640238Y-9908905D01*
X8640238Y-9899381D01*
X8630714Y-9880333D01*
X8611667Y-9870810D01*
X8583095Y-9870810D01*
X8564048Y-9861286D01*
X8554524Y-9842238D01*
X8554524Y-9832714D01*
X8564048Y-9813667D01*
X8583095Y-9804143D01*
X8611667Y-9804143D01*
X8630714Y-9813667D01*
X8706905Y-10013667D02*
X8716429Y-10004143D01*
X8735476Y-9975571D01*
X8745000Y-9956524D01*
X8754524Y-9927952D01*
X8764048Y-9880333D01*
X8764048Y-9842238D01*
X8754524Y-9794619D01*
X8745000Y-9766048D01*
X8735476Y-9747000D01*
X8716429Y-9718429D01*
X8706905Y-9708905D01*
X9068810Y-10013667D02*
X9059286Y-10004143D01*
X9040238Y-9975571D01*
X9030714Y-9956524D01*
X9021190Y-9927952D01*
X9011667Y-9880333D01*
X9011667Y-9842238D01*
X9021190Y-9794619D01*
X9030714Y-9766048D01*
X9040238Y-9747000D01*
X9059286Y-9718429D01*
X9068810Y-9708905D01*
X9145000Y-9804143D02*
X9145000Y-9937476D01*
X9145000Y-9823190D02*
X9154524Y-9813667D01*
X9173571Y-9804143D01*
X9202143Y-9804143D01*
X9221190Y-9813667D01*
X9230714Y-9832714D01*
X9230714Y-9937476D01*
X9354524Y-9937476D02*
X9335476Y-9927952D01*
X9325952Y-9918429D01*
X9316429Y-9899381D01*
X9316429Y-9842238D01*
X9325952Y-9823190D01*
X9335476Y-9813667D01*
X9354524Y-9804143D01*
X9383095Y-9804143D01*
X9402143Y-9813667D01*
X9411667Y-9823190D01*
X9421190Y-9842238D01*
X9421190Y-9899381D01*
X9411667Y-9918429D01*
X9402143Y-9927952D01*
X9383095Y-9937476D01*
X9354524Y-9937476D01*
X9478333Y-9804143D02*
X9554524Y-9804143D01*
X9506905Y-9737476D02*
X9506905Y-9908905D01*
X9516429Y-9927952D01*
X9535476Y-9937476D01*
X9554524Y-9937476D01*
X9773571Y-9804143D02*
X9773571Y-10004143D01*
X9773571Y-9813667D02*
X9792619Y-9804143D01*
X9830714Y-9804143D01*
X9849762Y-9813667D01*
X9859286Y-9823190D01*
X9868810Y-9842238D01*
X9868810Y-9899381D01*
X9859286Y-9918429D01*
X9849762Y-9927952D01*
X9830714Y-9937476D01*
X9792619Y-9937476D01*
X9773571Y-9927952D01*
X9983095Y-9937476D02*
X9964048Y-9927952D01*
X9954524Y-9908905D01*
X9954524Y-9737476D01*
X10145000Y-9937476D02*
X10145000Y-9832714D01*
X10135476Y-9813667D01*
X10116429Y-9804143D01*
X10078333Y-9804143D01*
X10059286Y-9813667D01*
X10145000Y-9927952D02*
X10125952Y-9937476D01*
X10078333Y-9937476D01*
X10059286Y-9927952D01*
X10049762Y-9908905D01*
X10049762Y-9889857D01*
X10059286Y-9870810D01*
X10078333Y-9861286D01*
X10125952Y-9861286D01*
X10145000Y-9851762D01*
X10211667Y-9804143D02*
X10287857Y-9804143D01*
X10240238Y-9737476D02*
X10240238Y-9908905D01*
X10249762Y-9927952D01*
X10268810Y-9937476D01*
X10287857Y-9937476D01*
X10430714Y-9927952D02*
X10411667Y-9937476D01*
X10373571Y-9937476D01*
X10354524Y-9927952D01*
X10345000Y-9908905D01*
X10345000Y-9832714D01*
X10354524Y-9813667D01*
X10373571Y-9804143D01*
X10411667Y-9804143D01*
X10430714Y-9813667D01*
X10440238Y-9832714D01*
X10440238Y-9851762D01*
X10345000Y-9870810D01*
X10611667Y-9937476D02*
X10611667Y-9737476D01*
X10611667Y-9927952D02*
X10592619Y-9937476D01*
X10554524Y-9937476D01*
X10535476Y-9927952D01*
X10525952Y-9918429D01*
X10516429Y-9899381D01*
X10516429Y-9842238D01*
X10525952Y-9823190D01*
X10535476Y-9813667D01*
X10554524Y-9804143D01*
X10592619Y-9804143D01*
X10611667Y-9813667D01*
X10687857Y-10013667D02*
X10697381Y-10004143D01*
X10716429Y-9975571D01*
X10725952Y-9956524D01*
X10735476Y-9927952D01*
X10745000Y-9880333D01*
X10745000Y-9842238D01*
X10735476Y-9794619D01*
X10725952Y-9766048D01*
X10716429Y-9747000D01*
X10697381Y-9718429D01*
X10687857Y-9708905D01*
X3835000Y-10067000D02*
X3835000Y-10267000D01*
X3735000Y-10167000D02*
X3935000Y-10167000D01*
X4278333Y-10124143D02*
X4278333Y-10257476D01*
X4230714Y-10047952D02*
X4183095Y-10190810D01*
X4306905Y-10190810D01*
X4383095Y-10238429D02*
X4392619Y-10247952D01*
X4383095Y-10257476D01*
X4373571Y-10247952D01*
X4383095Y-10238429D01*
X4383095Y-10257476D01*
X4516429Y-10057476D02*
X4535476Y-10057476D01*
X4554524Y-10067000D01*
X4564048Y-10076524D01*
X4573571Y-10095571D01*
X4583095Y-10133667D01*
X4583095Y-10181286D01*
X4573571Y-10219381D01*
X4564048Y-10238429D01*
X4554524Y-10247952D01*
X4535476Y-10257476D01*
X4516429Y-10257476D01*
X4497381Y-10247952D01*
X4487857Y-10238429D01*
X4478333Y-10219381D01*
X4468810Y-10181286D01*
X4468810Y-10133667D01*
X4478333Y-10095571D01*
X4487857Y-10076524D01*
X4497381Y-10067000D01*
X4516429Y-10057476D01*
X4706905Y-10057476D02*
X4725952Y-10057476D01*
X4745000Y-10067000D01*
X4754524Y-10076524D01*
X4764048Y-10095571D01*
X4773571Y-10133667D01*
X4773571Y-10181286D01*
X4764048Y-10219381D01*
X4754524Y-10238429D01*
X4745000Y-10247952D01*
X4725952Y-10257476D01*
X4706905Y-10257476D01*
X4687857Y-10247952D01*
X4678333Y-10238429D01*
X4668810Y-10219381D01*
X4659286Y-10181286D01*
X4659286Y-10133667D01*
X4668810Y-10095571D01*
X4678333Y-10076524D01*
X4687857Y-10067000D01*
X4706905Y-10057476D01*
X4897381Y-10057476D02*
X4916429Y-10057476D01*
X4935476Y-10067000D01*
X4945000Y-10076524D01*
X4954524Y-10095571D01*
X4964048Y-10133667D01*
X4964048Y-10181286D01*
X4954524Y-10219381D01*
X4945000Y-10238429D01*
X4935476Y-10247952D01*
X4916429Y-10257476D01*
X4897381Y-10257476D01*
X4878333Y-10247952D01*
X4868810Y-10238429D01*
X4859286Y-10219381D01*
X4849762Y-10181286D01*
X4849762Y-10133667D01*
X4859286Y-10095571D01*
X4868810Y-10076524D01*
X4878333Y-10067000D01*
X4897381Y-10057476D01*
X5049762Y-10257476D02*
X5049762Y-10124143D01*
X5049762Y-10143190D02*
X5059286Y-10133667D01*
X5078333Y-10124143D01*
X5106905Y-10124143D01*
X5125952Y-10133667D01*
X5135476Y-10152714D01*
X5135476Y-10257476D01*
X5135476Y-10152714D02*
X5145000Y-10133667D01*
X5164048Y-10124143D01*
X5192619Y-10124143D01*
X5211667Y-10133667D01*
X5221190Y-10152714D01*
X5221190Y-10257476D01*
X5316429Y-10257476D02*
X5316429Y-10124143D01*
X5316429Y-10143190D02*
X5325952Y-10133667D01*
X5345000Y-10124143D01*
X5373571Y-10124143D01*
X5392619Y-10133667D01*
X5402143Y-10152714D01*
X5402143Y-10257476D01*
X5402143Y-10152714D02*
X5411667Y-10133667D01*
X5430714Y-10124143D01*
X5459286Y-10124143D01*
X5478333Y-10133667D01*
X5487857Y-10152714D01*
X5487857Y-10257476D01*
X5878333Y-10047952D02*
X5706905Y-10305095D01*
X6135476Y-10057476D02*
X6154524Y-10057476D01*
X6173571Y-10067000D01*
X6183095Y-10076524D01*
X6192619Y-10095571D01*
X6202143Y-10133667D01*
X6202143Y-10181286D01*
X6192619Y-10219381D01*
X6183095Y-10238429D01*
X6173571Y-10247952D01*
X6154524Y-10257476D01*
X6135476Y-10257476D01*
X6116428Y-10247952D01*
X6106905Y-10238429D01*
X6097381Y-10219381D01*
X6087857Y-10181286D01*
X6087857Y-10133667D01*
X6097381Y-10095571D01*
X6106905Y-10076524D01*
X6116428Y-10067000D01*
X6135476Y-10057476D01*
X6287857Y-10238429D02*
X6297381Y-10247952D01*
X6287857Y-10257476D01*
X6278333Y-10247952D01*
X6287857Y-10238429D01*
X6287857Y-10257476D01*
X6487857Y-10257476D02*
X6373571Y-10257476D01*
X6430714Y-10257476D02*
X6430714Y-10057476D01*
X6411667Y-10086048D01*
X6392619Y-10105095D01*
X6373571Y-10114619D01*
X6668809Y-10057476D02*
X6573571Y-10057476D01*
X6564048Y-10152714D01*
X6573571Y-10143190D01*
X6592619Y-10133667D01*
X6640238Y-10133667D01*
X6659286Y-10143190D01*
X6668809Y-10152714D01*
X6678333Y-10171762D01*
X6678333Y-10219381D01*
X6668809Y-10238429D01*
X6659286Y-10247952D01*
X6640238Y-10257476D01*
X6592619Y-10257476D01*
X6573571Y-10247952D01*
X6564048Y-10238429D01*
X6745000Y-10057476D02*
X6878333Y-10057476D01*
X6792619Y-10257476D01*
X7049762Y-10057476D02*
X6954524Y-10057476D01*
X6945000Y-10152714D01*
X6954524Y-10143190D01*
X6973571Y-10133667D01*
X7021190Y-10133667D01*
X7040238Y-10143190D01*
X7049762Y-10152714D01*
X7059286Y-10171762D01*
X7059286Y-10219381D01*
X7049762Y-10238429D01*
X7040238Y-10247952D01*
X7021190Y-10257476D01*
X6973571Y-10257476D01*
X6954524Y-10247952D01*
X6945000Y-10238429D01*
X7135476Y-10057476D02*
X7135476Y-10095571D01*
X7211667Y-10057476D02*
X7211667Y-10095571D01*
X7506905Y-10333667D02*
X7497381Y-10324143D01*
X7478333Y-10295571D01*
X7468809Y-10276524D01*
X7459286Y-10247952D01*
X7449762Y-10200333D01*
X7449762Y-10162238D01*
X7459286Y-10114619D01*
X7468809Y-10086048D01*
X7478333Y-10067000D01*
X7497381Y-10038429D01*
X7506905Y-10028905D01*
X7564048Y-10057476D02*
X7687857Y-10057476D01*
X7621190Y-10133667D01*
X7649762Y-10133667D01*
X7668809Y-10143190D01*
X7678333Y-10152714D01*
X7687857Y-10171762D01*
X7687857Y-10219381D01*
X7678333Y-10238429D01*
X7668809Y-10247952D01*
X7649762Y-10257476D01*
X7592619Y-10257476D01*
X7573571Y-10247952D01*
X7564048Y-10238429D01*
X7925952Y-10257476D02*
X7925952Y-10057476D01*
X8011667Y-10257476D02*
X8011667Y-10152714D01*
X8002143Y-10133667D01*
X7983095Y-10124143D01*
X7954524Y-10124143D01*
X7935476Y-10133667D01*
X7925952Y-10143190D01*
X8135476Y-10257476D02*
X8116428Y-10247952D01*
X8106905Y-10238429D01*
X8097381Y-10219381D01*
X8097381Y-10162238D01*
X8106905Y-10143190D01*
X8116428Y-10133667D01*
X8135476Y-10124143D01*
X8164048Y-10124143D01*
X8183095Y-10133667D01*
X8192619Y-10143190D01*
X8202143Y-10162238D01*
X8202143Y-10219381D01*
X8192619Y-10238429D01*
X8183095Y-10247952D01*
X8164048Y-10257476D01*
X8135476Y-10257476D01*
X8316428Y-10257476D02*
X8297381Y-10247952D01*
X8287857Y-10228905D01*
X8287857Y-10057476D01*
X8468810Y-10247952D02*
X8449762Y-10257476D01*
X8411667Y-10257476D01*
X8392619Y-10247952D01*
X8383095Y-10228905D01*
X8383095Y-10152714D01*
X8392619Y-10133667D01*
X8411667Y-10124143D01*
X8449762Y-10124143D01*
X8468810Y-10133667D01*
X8478333Y-10152714D01*
X8478333Y-10171762D01*
X8383095Y-10190810D01*
X8554524Y-10247952D02*
X8573571Y-10257476D01*
X8611667Y-10257476D01*
X8630714Y-10247952D01*
X8640238Y-10228905D01*
X8640238Y-10219381D01*
X8630714Y-10200333D01*
X8611667Y-10190810D01*
X8583095Y-10190810D01*
X8564048Y-10181286D01*
X8554524Y-10162238D01*
X8554524Y-10152714D01*
X8564048Y-10133667D01*
X8583095Y-10124143D01*
X8611667Y-10124143D01*
X8630714Y-10133667D01*
X8706905Y-10333667D02*
X8716429Y-10324143D01*
X8735476Y-10295571D01*
X8745000Y-10276524D01*
X8754524Y-10247952D01*
X8764048Y-10200333D01*
X8764048Y-10162238D01*
X8754524Y-10114619D01*
X8745000Y-10086048D01*
X8735476Y-10067000D01*
X8716429Y-10038429D01*
X8706905Y-10028905D01*
X9068810Y-10333667D02*
X9059286Y-10324143D01*
X9040238Y-10295571D01*
X9030714Y-10276524D01*
X9021190Y-10247952D01*
X9011667Y-10200333D01*
X9011667Y-10162238D01*
X9021190Y-10114619D01*
X9030714Y-10086048D01*
X9040238Y-10067000D01*
X9059286Y-10038429D01*
X9068810Y-10028905D01*
X9145000Y-10124143D02*
X9145000Y-10257476D01*
X9145000Y-10143190D02*
X9154524Y-10133667D01*
X9173571Y-10124143D01*
X9202143Y-10124143D01*
X9221190Y-10133667D01*
X9230714Y-10152714D01*
X9230714Y-10257476D01*
X9354524Y-10257476D02*
X9335476Y-10247952D01*
X9325952Y-10238429D01*
X9316429Y-10219381D01*
X9316429Y-10162238D01*
X9325952Y-10143190D01*
X9335476Y-10133667D01*
X9354524Y-10124143D01*
X9383095Y-10124143D01*
X9402143Y-10133667D01*
X9411667Y-10143190D01*
X9421190Y-10162238D01*
X9421190Y-10219381D01*
X9411667Y-10238429D01*
X9402143Y-10247952D01*
X9383095Y-10257476D01*
X9354524Y-10257476D01*
X9478333Y-10124143D02*
X9554524Y-10124143D01*
X9506905Y-10057476D02*
X9506905Y-10228905D01*
X9516429Y-10247952D01*
X9535476Y-10257476D01*
X9554524Y-10257476D01*
X9773571Y-10124143D02*
X9773571Y-10324143D01*
X9773571Y-10133667D02*
X9792619Y-10124143D01*
X9830714Y-10124143D01*
X9849762Y-10133667D01*
X9859286Y-10143190D01*
X9868810Y-10162238D01*
X9868810Y-10219381D01*
X9859286Y-10238429D01*
X9849762Y-10247952D01*
X9830714Y-10257476D01*
X9792619Y-10257476D01*
X9773571Y-10247952D01*
X9983095Y-10257476D02*
X9964048Y-10247952D01*
X9954524Y-10228905D01*
X9954524Y-10057476D01*
X10145000Y-10257476D02*
X10145000Y-10152714D01*
X10135476Y-10133667D01*
X10116429Y-10124143D01*
X10078333Y-10124143D01*
X10059286Y-10133667D01*
X10145000Y-10247952D02*
X10125952Y-10257476D01*
X10078333Y-10257476D01*
X10059286Y-10247952D01*
X10049762Y-10228905D01*
X10049762Y-10209857D01*
X10059286Y-10190810D01*
X10078333Y-10181286D01*
X10125952Y-10181286D01*
X10145000Y-10171762D01*
X10211667Y-10124143D02*
X10287857Y-10124143D01*
X10240238Y-10057476D02*
X10240238Y-10228905D01*
X10249762Y-10247952D01*
X10268810Y-10257476D01*
X10287857Y-10257476D01*
X10430714Y-10247952D02*
X10411667Y-10257476D01*
X10373571Y-10257476D01*
X10354524Y-10247952D01*
X10345000Y-10228905D01*
X10345000Y-10152714D01*
X10354524Y-10133667D01*
X10373571Y-10124143D01*
X10411667Y-10124143D01*
X10430714Y-10133667D01*
X10440238Y-10152714D01*
X10440238Y-10171762D01*
X10345000Y-10190810D01*
X10611667Y-10257476D02*
X10611667Y-10057476D01*
X10611667Y-10247952D02*
X10592619Y-10257476D01*
X10554524Y-10257476D01*
X10535476Y-10247952D01*
X10525952Y-10238429D01*
X10516429Y-10219381D01*
X10516429Y-10162238D01*
X10525952Y-10143190D01*
X10535476Y-10133667D01*
X10554524Y-10124143D01*
X10592619Y-10124143D01*
X10611667Y-10133667D01*
X10687857Y-10333667D02*
X10697381Y-10324143D01*
X10716429Y-10295571D01*
X10725952Y-10276524D01*
X10735476Y-10247952D01*
X10745000Y-10200333D01*
X10745000Y-10162238D01*
X10735476Y-10114619D01*
X10725952Y-10086048D01*
X10716429Y-10067000D01*
X10697381Y-10038429D01*
X10687857Y-10028905D01*
M02*
