%TF.GenerationSoftware,KiCad,Pcbnew,(6.0.8)*%
%TF.CreationDate,2024-06-02T21:29:24+02:00*%
%TF.ProjectId,micropad,6d696372-6f70-4616-942e-6b696361645f,rev?*%
%TF.SameCoordinates,Original*%
%TF.FileFunction,Drillmap*%
%TF.FilePolarity,Positive*%
%FSLAX45Y45*%
G04 Gerber Fmt 4.5, Leading zero omitted, Abs format (unit mm)*
G04 Created by KiCad (PCBNEW (6.0.8)) date 2024-06-02 21:29:24*
%MOMM*%
%LPD*%
G01*
G04 APERTURE LIST*
%ADD10C,0.100000*%
%ADD11C,0.200000*%
%ADD12C,0.080000*%
%ADD13C,0.110000*%
%ADD14C,0.150000*%
G04 APERTURE END LIST*
D10*
X6418000Y-8440000D02*
G75*
G03*
X7069000Y-8882000I651000J258413D01*
G01*
X4639000Y-8881000D02*
G75*
G03*
X5290000Y-8440000I1852J698266D01*
G01*
X5290000Y-8440000D02*
X6418000Y-8440000D01*
X7770000Y-4845000D02*
X3945000Y-4850000D01*
X3940000Y-8182000D02*
G75*
G03*
X4639000Y-8881000I699000J0D01*
G01*
X7069000Y-8882000D02*
G75*
G03*
X7769000Y-8182000I0J700000D01*
G01*
X3940000Y-8182000D02*
X3945000Y-4850000D01*
X7769000Y-8182000D02*
X7770000Y-4845000D01*
D11*
D12*
X4087000Y-6786000D02*
X4167000Y-6866000D01*
X4167000Y-6786000D02*
X4087000Y-6866000D01*
X4087000Y-7548000D02*
X4167000Y-7628000D01*
X4167000Y-7548000D02*
X4087000Y-7628000D01*
D13*
X6098000Y-4985000D02*
G75*
G03*
X6098000Y-4985000I-55000J0D01*
G01*
X6098000Y-5239000D02*
G75*
G03*
X6098000Y-5239000I-55000J0D01*
G01*
X6098000Y-5493000D02*
G75*
G03*
X6098000Y-5493000I-55000J0D01*
G01*
X6098000Y-5747000D02*
G75*
G03*
X6098000Y-5747000I-55000J0D01*
G01*
X6098000Y-6001000D02*
G75*
G03*
X6098000Y-6001000I-55000J0D01*
G01*
X6098000Y-6255000D02*
G75*
G03*
X6098000Y-6255000I-55000J0D01*
G01*
X6098000Y-6509000D02*
G75*
G03*
X6098000Y-6509000I-55000J0D01*
G01*
X6098000Y-6763000D02*
G75*
G03*
X6098000Y-6763000I-55000J0D01*
G01*
X7622000Y-4985000D02*
G75*
G03*
X7622000Y-4985000I-55000J0D01*
G01*
X7622000Y-5239000D02*
G75*
G03*
X7622000Y-5239000I-55000J0D01*
G01*
X7622000Y-5493000D02*
G75*
G03*
X7622000Y-5493000I-55000J0D01*
G01*
X7622000Y-5747000D02*
G75*
G03*
X7622000Y-5747000I-55000J0D01*
G01*
X7622000Y-6001000D02*
G75*
G03*
X7622000Y-6001000I-55000J0D01*
G01*
X7622000Y-6255000D02*
G75*
G03*
X7622000Y-6255000I-55000J0D01*
G01*
X7622000Y-6509000D02*
G75*
G03*
X7622000Y-6509000I-55000J0D01*
G01*
X7622000Y-6763000D02*
G75*
G03*
X7622000Y-6763000I-55000J0D01*
G01*
X7622000Y-7017000D02*
G75*
G03*
X7622000Y-7017000I-55000J0D01*
G01*
X7622000Y-7271000D02*
G75*
G03*
X7622000Y-7271000I-55000J0D01*
G01*
X7622000Y-7525000D02*
G75*
G03*
X7622000Y-7525000I-55000J0D01*
G01*
X7622000Y-7779000D02*
G75*
G03*
X7622000Y-7779000I-55000J0D01*
G01*
D14*
X4518000Y-5381000D02*
X4518000Y-5531000D01*
X4443000Y-5456000D02*
X4593000Y-5456000D01*
X5153000Y-5127000D02*
X5153000Y-5277000D01*
X5078000Y-5202000D02*
X5228000Y-5202000D01*
X5474000Y-7287000D02*
X5474000Y-7437000D01*
X5399000Y-7362000D02*
X5549000Y-7362000D01*
X6109000Y-7033000D02*
X6109000Y-7183000D01*
X6034000Y-7108000D02*
X6184000Y-7108000D01*
X6425000Y-5385000D02*
X6425000Y-5535000D01*
X6350000Y-5460000D02*
X6500000Y-5460000D01*
X7060000Y-5131000D02*
X7060000Y-5281000D01*
X6985000Y-5206000D02*
X7135000Y-5206000D01*
D11*
X4192619Y-9197476D02*
X4192619Y-8997476D01*
X4240238Y-8997476D01*
X4268810Y-9007000D01*
X4287857Y-9026048D01*
X4297381Y-9045095D01*
X4306905Y-9083190D01*
X4306905Y-9111762D01*
X4297381Y-9149857D01*
X4287857Y-9168905D01*
X4268810Y-9187952D01*
X4240238Y-9197476D01*
X4192619Y-9197476D01*
X4392619Y-9197476D02*
X4392619Y-9064143D01*
X4392619Y-9102238D02*
X4402143Y-9083190D01*
X4411667Y-9073667D01*
X4430714Y-9064143D01*
X4449762Y-9064143D01*
X4516429Y-9197476D02*
X4516429Y-9064143D01*
X4516429Y-8997476D02*
X4506905Y-9007000D01*
X4516429Y-9016524D01*
X4525952Y-9007000D01*
X4516429Y-8997476D01*
X4516429Y-9016524D01*
X4640238Y-9197476D02*
X4621190Y-9187952D01*
X4611667Y-9168905D01*
X4611667Y-8997476D01*
X4745000Y-9197476D02*
X4725952Y-9187952D01*
X4716429Y-9168905D01*
X4716429Y-8997476D01*
X4973571Y-9197476D02*
X4973571Y-8997476D01*
X5040238Y-9140333D01*
X5106905Y-8997476D01*
X5106905Y-9197476D01*
X5287857Y-9197476D02*
X5287857Y-9092714D01*
X5278333Y-9073667D01*
X5259286Y-9064143D01*
X5221190Y-9064143D01*
X5202143Y-9073667D01*
X5287857Y-9187952D02*
X5268810Y-9197476D01*
X5221190Y-9197476D01*
X5202143Y-9187952D01*
X5192619Y-9168905D01*
X5192619Y-9149857D01*
X5202143Y-9130810D01*
X5221190Y-9121286D01*
X5268810Y-9121286D01*
X5287857Y-9111762D01*
X5383095Y-9064143D02*
X5383095Y-9264143D01*
X5383095Y-9073667D02*
X5402143Y-9064143D01*
X5440238Y-9064143D01*
X5459286Y-9073667D01*
X5468810Y-9083190D01*
X5478333Y-9102238D01*
X5478333Y-9159381D01*
X5468810Y-9178429D01*
X5459286Y-9187952D01*
X5440238Y-9197476D01*
X5402143Y-9197476D01*
X5383095Y-9187952D01*
X5564048Y-9178429D02*
X5573571Y-9187952D01*
X5564048Y-9197476D01*
X5554524Y-9187952D01*
X5564048Y-9178429D01*
X5564048Y-9197476D01*
X5564048Y-9073667D02*
X5573571Y-9083190D01*
X5564048Y-9092714D01*
X5554524Y-9083190D01*
X5564048Y-9073667D01*
X5564048Y-9092714D01*
D12*
X3855000Y-9487000D02*
X3935000Y-9567000D01*
X3935000Y-9487000D02*
X3855000Y-9567000D01*
D11*
X4230714Y-9417476D02*
X4249762Y-9417476D01*
X4268810Y-9427000D01*
X4278333Y-9436524D01*
X4287857Y-9455571D01*
X4297381Y-9493667D01*
X4297381Y-9541286D01*
X4287857Y-9579381D01*
X4278333Y-9598429D01*
X4268810Y-9607952D01*
X4249762Y-9617476D01*
X4230714Y-9617476D01*
X4211667Y-9607952D01*
X4202143Y-9598429D01*
X4192619Y-9579381D01*
X4183095Y-9541286D01*
X4183095Y-9493667D01*
X4192619Y-9455571D01*
X4202143Y-9436524D01*
X4211667Y-9427000D01*
X4230714Y-9417476D01*
X4383095Y-9598429D02*
X4392619Y-9607952D01*
X4383095Y-9617476D01*
X4373571Y-9607952D01*
X4383095Y-9598429D01*
X4383095Y-9617476D01*
X4506905Y-9503190D02*
X4487857Y-9493667D01*
X4478333Y-9484143D01*
X4468810Y-9465095D01*
X4468810Y-9455571D01*
X4478333Y-9436524D01*
X4487857Y-9427000D01*
X4506905Y-9417476D01*
X4545000Y-9417476D01*
X4564048Y-9427000D01*
X4573571Y-9436524D01*
X4583095Y-9455571D01*
X4583095Y-9465095D01*
X4573571Y-9484143D01*
X4564048Y-9493667D01*
X4545000Y-9503190D01*
X4506905Y-9503190D01*
X4487857Y-9512714D01*
X4478333Y-9522238D01*
X4468810Y-9541286D01*
X4468810Y-9579381D01*
X4478333Y-9598429D01*
X4487857Y-9607952D01*
X4506905Y-9617476D01*
X4545000Y-9617476D01*
X4564048Y-9607952D01*
X4573571Y-9598429D01*
X4583095Y-9579381D01*
X4583095Y-9541286D01*
X4573571Y-9522238D01*
X4564048Y-9512714D01*
X4545000Y-9503190D01*
X4706905Y-9417476D02*
X4725952Y-9417476D01*
X4745000Y-9427000D01*
X4754524Y-9436524D01*
X4764048Y-9455571D01*
X4773571Y-9493667D01*
X4773571Y-9541286D01*
X4764048Y-9579381D01*
X4754524Y-9598429D01*
X4745000Y-9607952D01*
X4725952Y-9617476D01*
X4706905Y-9617476D01*
X4687857Y-9607952D01*
X4678333Y-9598429D01*
X4668810Y-9579381D01*
X4659286Y-9541286D01*
X4659286Y-9493667D01*
X4668810Y-9455571D01*
X4678333Y-9436524D01*
X4687857Y-9427000D01*
X4706905Y-9417476D01*
X4897381Y-9417476D02*
X4916429Y-9417476D01*
X4935476Y-9427000D01*
X4945000Y-9436524D01*
X4954524Y-9455571D01*
X4964048Y-9493667D01*
X4964048Y-9541286D01*
X4954524Y-9579381D01*
X4945000Y-9598429D01*
X4935476Y-9607952D01*
X4916429Y-9617476D01*
X4897381Y-9617476D01*
X4878333Y-9607952D01*
X4868810Y-9598429D01*
X4859286Y-9579381D01*
X4849762Y-9541286D01*
X4849762Y-9493667D01*
X4859286Y-9455571D01*
X4868810Y-9436524D01*
X4878333Y-9427000D01*
X4897381Y-9417476D01*
X5049762Y-9617476D02*
X5049762Y-9484143D01*
X5049762Y-9503190D02*
X5059286Y-9493667D01*
X5078333Y-9484143D01*
X5106905Y-9484143D01*
X5125952Y-9493667D01*
X5135476Y-9512714D01*
X5135476Y-9617476D01*
X5135476Y-9512714D02*
X5145000Y-9493667D01*
X5164048Y-9484143D01*
X5192619Y-9484143D01*
X5211667Y-9493667D01*
X5221190Y-9512714D01*
X5221190Y-9617476D01*
X5316429Y-9617476D02*
X5316429Y-9484143D01*
X5316429Y-9503190D02*
X5325952Y-9493667D01*
X5345000Y-9484143D01*
X5373571Y-9484143D01*
X5392619Y-9493667D01*
X5402143Y-9512714D01*
X5402143Y-9617476D01*
X5402143Y-9512714D02*
X5411667Y-9493667D01*
X5430714Y-9484143D01*
X5459286Y-9484143D01*
X5478333Y-9493667D01*
X5487857Y-9512714D01*
X5487857Y-9617476D01*
X5878333Y-9407952D02*
X5706905Y-9665095D01*
X6135476Y-9417476D02*
X6154524Y-9417476D01*
X6173571Y-9427000D01*
X6183095Y-9436524D01*
X6192619Y-9455571D01*
X6202143Y-9493667D01*
X6202143Y-9541286D01*
X6192619Y-9579381D01*
X6183095Y-9598429D01*
X6173571Y-9607952D01*
X6154524Y-9617476D01*
X6135476Y-9617476D01*
X6116428Y-9607952D01*
X6106905Y-9598429D01*
X6097381Y-9579381D01*
X6087857Y-9541286D01*
X6087857Y-9493667D01*
X6097381Y-9455571D01*
X6106905Y-9436524D01*
X6116428Y-9427000D01*
X6135476Y-9417476D01*
X6287857Y-9598429D02*
X6297381Y-9607952D01*
X6287857Y-9617476D01*
X6278333Y-9607952D01*
X6287857Y-9598429D01*
X6287857Y-9617476D01*
X6421190Y-9417476D02*
X6440238Y-9417476D01*
X6459286Y-9427000D01*
X6468809Y-9436524D01*
X6478333Y-9455571D01*
X6487857Y-9493667D01*
X6487857Y-9541286D01*
X6478333Y-9579381D01*
X6468809Y-9598429D01*
X6459286Y-9607952D01*
X6440238Y-9617476D01*
X6421190Y-9617476D01*
X6402143Y-9607952D01*
X6392619Y-9598429D01*
X6383095Y-9579381D01*
X6373571Y-9541286D01*
X6373571Y-9493667D01*
X6383095Y-9455571D01*
X6392619Y-9436524D01*
X6402143Y-9427000D01*
X6421190Y-9417476D01*
X6554524Y-9417476D02*
X6678333Y-9417476D01*
X6611667Y-9493667D01*
X6640238Y-9493667D01*
X6659286Y-9503190D01*
X6668809Y-9512714D01*
X6678333Y-9531762D01*
X6678333Y-9579381D01*
X6668809Y-9598429D01*
X6659286Y-9607952D01*
X6640238Y-9617476D01*
X6583095Y-9617476D01*
X6564048Y-9607952D01*
X6554524Y-9598429D01*
X6868809Y-9617476D02*
X6754524Y-9617476D01*
X6811667Y-9617476D02*
X6811667Y-9417476D01*
X6792619Y-9446048D01*
X6773571Y-9465095D01*
X6754524Y-9474619D01*
X7049762Y-9417476D02*
X6954524Y-9417476D01*
X6945000Y-9512714D01*
X6954524Y-9503190D01*
X6973571Y-9493667D01*
X7021190Y-9493667D01*
X7040238Y-9503190D01*
X7049762Y-9512714D01*
X7059286Y-9531762D01*
X7059286Y-9579381D01*
X7049762Y-9598429D01*
X7040238Y-9607952D01*
X7021190Y-9617476D01*
X6973571Y-9617476D01*
X6954524Y-9607952D01*
X6945000Y-9598429D01*
X7135476Y-9417476D02*
X7135476Y-9455571D01*
X7211667Y-9417476D02*
X7211667Y-9455571D01*
X7506905Y-9693667D02*
X7497381Y-9684143D01*
X7478333Y-9655571D01*
X7468809Y-9636524D01*
X7459286Y-9607952D01*
X7449762Y-9560333D01*
X7449762Y-9522238D01*
X7459286Y-9474619D01*
X7468809Y-9446048D01*
X7478333Y-9427000D01*
X7497381Y-9398429D01*
X7506905Y-9388905D01*
X7573571Y-9436524D02*
X7583095Y-9427000D01*
X7602143Y-9417476D01*
X7649762Y-9417476D01*
X7668809Y-9427000D01*
X7678333Y-9436524D01*
X7687857Y-9455571D01*
X7687857Y-9474619D01*
X7678333Y-9503190D01*
X7564048Y-9617476D01*
X7687857Y-9617476D01*
X7925952Y-9617476D02*
X7925952Y-9417476D01*
X8011667Y-9617476D02*
X8011667Y-9512714D01*
X8002143Y-9493667D01*
X7983095Y-9484143D01*
X7954524Y-9484143D01*
X7935476Y-9493667D01*
X7925952Y-9503190D01*
X8135476Y-9617476D02*
X8116428Y-9607952D01*
X8106905Y-9598429D01*
X8097381Y-9579381D01*
X8097381Y-9522238D01*
X8106905Y-9503190D01*
X8116428Y-9493667D01*
X8135476Y-9484143D01*
X8164048Y-9484143D01*
X8183095Y-9493667D01*
X8192619Y-9503190D01*
X8202143Y-9522238D01*
X8202143Y-9579381D01*
X8192619Y-9598429D01*
X8183095Y-9607952D01*
X8164048Y-9617476D01*
X8135476Y-9617476D01*
X8316428Y-9617476D02*
X8297381Y-9607952D01*
X8287857Y-9588905D01*
X8287857Y-9417476D01*
X8468810Y-9607952D02*
X8449762Y-9617476D01*
X8411667Y-9617476D01*
X8392619Y-9607952D01*
X8383095Y-9588905D01*
X8383095Y-9512714D01*
X8392619Y-9493667D01*
X8411667Y-9484143D01*
X8449762Y-9484143D01*
X8468810Y-9493667D01*
X8478333Y-9512714D01*
X8478333Y-9531762D01*
X8383095Y-9550810D01*
X8554524Y-9607952D02*
X8573571Y-9617476D01*
X8611667Y-9617476D01*
X8630714Y-9607952D01*
X8640238Y-9588905D01*
X8640238Y-9579381D01*
X8630714Y-9560333D01*
X8611667Y-9550810D01*
X8583095Y-9550810D01*
X8564048Y-9541286D01*
X8554524Y-9522238D01*
X8554524Y-9512714D01*
X8564048Y-9493667D01*
X8583095Y-9484143D01*
X8611667Y-9484143D01*
X8630714Y-9493667D01*
X8706905Y-9693667D02*
X8716429Y-9684143D01*
X8735476Y-9655571D01*
X8745000Y-9636524D01*
X8754524Y-9607952D01*
X8764048Y-9560333D01*
X8764048Y-9522238D01*
X8754524Y-9474619D01*
X8745000Y-9446048D01*
X8735476Y-9427000D01*
X8716429Y-9398429D01*
X8706905Y-9388905D01*
D13*
X3935000Y-9791000D02*
G75*
G03*
X3935000Y-9791000I-55000J0D01*
G01*
D11*
X4297381Y-9881476D02*
X4183095Y-9881476D01*
X4240238Y-9881476D02*
X4240238Y-9681476D01*
X4221190Y-9710048D01*
X4202143Y-9729095D01*
X4183095Y-9738619D01*
X4383095Y-9862429D02*
X4392619Y-9871952D01*
X4383095Y-9881476D01*
X4373571Y-9871952D01*
X4383095Y-9862429D01*
X4383095Y-9881476D01*
X4583095Y-9881476D02*
X4468810Y-9881476D01*
X4525952Y-9881476D02*
X4525952Y-9681476D01*
X4506905Y-9710048D01*
X4487857Y-9729095D01*
X4468810Y-9738619D01*
X4706905Y-9681476D02*
X4725952Y-9681476D01*
X4745000Y-9691000D01*
X4754524Y-9700524D01*
X4764048Y-9719571D01*
X4773571Y-9757667D01*
X4773571Y-9805286D01*
X4764048Y-9843381D01*
X4754524Y-9862429D01*
X4745000Y-9871952D01*
X4725952Y-9881476D01*
X4706905Y-9881476D01*
X4687857Y-9871952D01*
X4678333Y-9862429D01*
X4668810Y-9843381D01*
X4659286Y-9805286D01*
X4659286Y-9757667D01*
X4668810Y-9719571D01*
X4678333Y-9700524D01*
X4687857Y-9691000D01*
X4706905Y-9681476D01*
X4897381Y-9681476D02*
X4916429Y-9681476D01*
X4935476Y-9691000D01*
X4945000Y-9700524D01*
X4954524Y-9719571D01*
X4964048Y-9757667D01*
X4964048Y-9805286D01*
X4954524Y-9843381D01*
X4945000Y-9862429D01*
X4935476Y-9871952D01*
X4916429Y-9881476D01*
X4897381Y-9881476D01*
X4878333Y-9871952D01*
X4868810Y-9862429D01*
X4859286Y-9843381D01*
X4849762Y-9805286D01*
X4849762Y-9757667D01*
X4859286Y-9719571D01*
X4868810Y-9700524D01*
X4878333Y-9691000D01*
X4897381Y-9681476D01*
X5049762Y-9881476D02*
X5049762Y-9748143D01*
X5049762Y-9767190D02*
X5059286Y-9757667D01*
X5078333Y-9748143D01*
X5106905Y-9748143D01*
X5125952Y-9757667D01*
X5135476Y-9776714D01*
X5135476Y-9881476D01*
X5135476Y-9776714D02*
X5145000Y-9757667D01*
X5164048Y-9748143D01*
X5192619Y-9748143D01*
X5211667Y-9757667D01*
X5221190Y-9776714D01*
X5221190Y-9881476D01*
X5316429Y-9881476D02*
X5316429Y-9748143D01*
X5316429Y-9767190D02*
X5325952Y-9757667D01*
X5345000Y-9748143D01*
X5373571Y-9748143D01*
X5392619Y-9757667D01*
X5402143Y-9776714D01*
X5402143Y-9881476D01*
X5402143Y-9776714D02*
X5411667Y-9757667D01*
X5430714Y-9748143D01*
X5459286Y-9748143D01*
X5478333Y-9757667D01*
X5487857Y-9776714D01*
X5487857Y-9881476D01*
X5878333Y-9671952D02*
X5706905Y-9929095D01*
X6135476Y-9681476D02*
X6154524Y-9681476D01*
X6173571Y-9691000D01*
X6183095Y-9700524D01*
X6192619Y-9719571D01*
X6202143Y-9757667D01*
X6202143Y-9805286D01*
X6192619Y-9843381D01*
X6183095Y-9862429D01*
X6173571Y-9871952D01*
X6154524Y-9881476D01*
X6135476Y-9881476D01*
X6116428Y-9871952D01*
X6106905Y-9862429D01*
X6097381Y-9843381D01*
X6087857Y-9805286D01*
X6087857Y-9757667D01*
X6097381Y-9719571D01*
X6106905Y-9700524D01*
X6116428Y-9691000D01*
X6135476Y-9681476D01*
X6287857Y-9862429D02*
X6297381Y-9871952D01*
X6287857Y-9881476D01*
X6278333Y-9871952D01*
X6287857Y-9862429D01*
X6287857Y-9881476D01*
X6421190Y-9681476D02*
X6440238Y-9681476D01*
X6459286Y-9691000D01*
X6468809Y-9700524D01*
X6478333Y-9719571D01*
X6487857Y-9757667D01*
X6487857Y-9805286D01*
X6478333Y-9843381D01*
X6468809Y-9862429D01*
X6459286Y-9871952D01*
X6440238Y-9881476D01*
X6421190Y-9881476D01*
X6402143Y-9871952D01*
X6392619Y-9862429D01*
X6383095Y-9843381D01*
X6373571Y-9805286D01*
X6373571Y-9757667D01*
X6383095Y-9719571D01*
X6392619Y-9700524D01*
X6402143Y-9691000D01*
X6421190Y-9681476D01*
X6659286Y-9748143D02*
X6659286Y-9881476D01*
X6611667Y-9671952D02*
X6564048Y-9814810D01*
X6687857Y-9814810D01*
X6745000Y-9681476D02*
X6868809Y-9681476D01*
X6802143Y-9757667D01*
X6830714Y-9757667D01*
X6849762Y-9767190D01*
X6859286Y-9776714D01*
X6868809Y-9795762D01*
X6868809Y-9843381D01*
X6859286Y-9862429D01*
X6849762Y-9871952D01*
X6830714Y-9881476D01*
X6773571Y-9881476D01*
X6754524Y-9871952D01*
X6745000Y-9862429D01*
X6935476Y-9681476D02*
X7059286Y-9681476D01*
X6992619Y-9757667D01*
X7021190Y-9757667D01*
X7040238Y-9767190D01*
X7049762Y-9776714D01*
X7059286Y-9795762D01*
X7059286Y-9843381D01*
X7049762Y-9862429D01*
X7040238Y-9871952D01*
X7021190Y-9881476D01*
X6964048Y-9881476D01*
X6945000Y-9871952D01*
X6935476Y-9862429D01*
X7135476Y-9681476D02*
X7135476Y-9719571D01*
X7211667Y-9681476D02*
X7211667Y-9719571D01*
X7506905Y-9957667D02*
X7497381Y-9948143D01*
X7478333Y-9919571D01*
X7468809Y-9900524D01*
X7459286Y-9871952D01*
X7449762Y-9824333D01*
X7449762Y-9786238D01*
X7459286Y-9738619D01*
X7468809Y-9710048D01*
X7478333Y-9691000D01*
X7497381Y-9662429D01*
X7506905Y-9652905D01*
X7573571Y-9700524D02*
X7583095Y-9691000D01*
X7602143Y-9681476D01*
X7649762Y-9681476D01*
X7668809Y-9691000D01*
X7678333Y-9700524D01*
X7687857Y-9719571D01*
X7687857Y-9738619D01*
X7678333Y-9767190D01*
X7564048Y-9881476D01*
X7687857Y-9881476D01*
X7811667Y-9681476D02*
X7830714Y-9681476D01*
X7849762Y-9691000D01*
X7859286Y-9700524D01*
X7868809Y-9719571D01*
X7878333Y-9757667D01*
X7878333Y-9805286D01*
X7868809Y-9843381D01*
X7859286Y-9862429D01*
X7849762Y-9871952D01*
X7830714Y-9881476D01*
X7811667Y-9881476D01*
X7792619Y-9871952D01*
X7783095Y-9862429D01*
X7773571Y-9843381D01*
X7764048Y-9805286D01*
X7764048Y-9757667D01*
X7773571Y-9719571D01*
X7783095Y-9700524D01*
X7792619Y-9691000D01*
X7811667Y-9681476D01*
X8116428Y-9881476D02*
X8116428Y-9681476D01*
X8202143Y-9881476D02*
X8202143Y-9776714D01*
X8192619Y-9757667D01*
X8173571Y-9748143D01*
X8145000Y-9748143D01*
X8125952Y-9757667D01*
X8116428Y-9767190D01*
X8325952Y-9881476D02*
X8306905Y-9871952D01*
X8297381Y-9862429D01*
X8287857Y-9843381D01*
X8287857Y-9786238D01*
X8297381Y-9767190D01*
X8306905Y-9757667D01*
X8325952Y-9748143D01*
X8354524Y-9748143D01*
X8373571Y-9757667D01*
X8383095Y-9767190D01*
X8392619Y-9786238D01*
X8392619Y-9843381D01*
X8383095Y-9862429D01*
X8373571Y-9871952D01*
X8354524Y-9881476D01*
X8325952Y-9881476D01*
X8506905Y-9881476D02*
X8487857Y-9871952D01*
X8478333Y-9852905D01*
X8478333Y-9681476D01*
X8659286Y-9871952D02*
X8640238Y-9881476D01*
X8602143Y-9881476D01*
X8583095Y-9871952D01*
X8573571Y-9852905D01*
X8573571Y-9776714D01*
X8583095Y-9757667D01*
X8602143Y-9748143D01*
X8640238Y-9748143D01*
X8659286Y-9757667D01*
X8668810Y-9776714D01*
X8668810Y-9795762D01*
X8573571Y-9814810D01*
X8745000Y-9871952D02*
X8764048Y-9881476D01*
X8802143Y-9881476D01*
X8821190Y-9871952D01*
X8830714Y-9852905D01*
X8830714Y-9843381D01*
X8821190Y-9824333D01*
X8802143Y-9814810D01*
X8773571Y-9814810D01*
X8754524Y-9805286D01*
X8745000Y-9786238D01*
X8745000Y-9776714D01*
X8754524Y-9757667D01*
X8773571Y-9748143D01*
X8802143Y-9748143D01*
X8821190Y-9757667D01*
X8897381Y-9957667D02*
X8906905Y-9948143D01*
X8925952Y-9919571D01*
X8935476Y-9900524D01*
X8945000Y-9871952D01*
X8954524Y-9824333D01*
X8954524Y-9786238D01*
X8945000Y-9738619D01*
X8935476Y-9710048D01*
X8925952Y-9691000D01*
X8906905Y-9662429D01*
X8897381Y-9652905D01*
D14*
X3860000Y-9980000D02*
X3860000Y-10130000D01*
X3785000Y-10055000D02*
X3935000Y-10055000D01*
D11*
X4297381Y-10145476D02*
X4183095Y-10145476D01*
X4240238Y-10145476D02*
X4240238Y-9945476D01*
X4221190Y-9974048D01*
X4202143Y-9993095D01*
X4183095Y-10002619D01*
X4383095Y-10126429D02*
X4392619Y-10135952D01*
X4383095Y-10145476D01*
X4373571Y-10135952D01*
X4383095Y-10126429D01*
X4383095Y-10145476D01*
X4573571Y-9945476D02*
X4478333Y-9945476D01*
X4468810Y-10040714D01*
X4478333Y-10031190D01*
X4497381Y-10021667D01*
X4545000Y-10021667D01*
X4564048Y-10031190D01*
X4573571Y-10040714D01*
X4583095Y-10059762D01*
X4583095Y-10107381D01*
X4573571Y-10126429D01*
X4564048Y-10135952D01*
X4545000Y-10145476D01*
X4497381Y-10145476D01*
X4478333Y-10135952D01*
X4468810Y-10126429D01*
X4706905Y-9945476D02*
X4725952Y-9945476D01*
X4745000Y-9955000D01*
X4754524Y-9964524D01*
X4764048Y-9983571D01*
X4773571Y-10021667D01*
X4773571Y-10069286D01*
X4764048Y-10107381D01*
X4754524Y-10126429D01*
X4745000Y-10135952D01*
X4725952Y-10145476D01*
X4706905Y-10145476D01*
X4687857Y-10135952D01*
X4678333Y-10126429D01*
X4668810Y-10107381D01*
X4659286Y-10069286D01*
X4659286Y-10021667D01*
X4668810Y-9983571D01*
X4678333Y-9964524D01*
X4687857Y-9955000D01*
X4706905Y-9945476D01*
X4897381Y-9945476D02*
X4916429Y-9945476D01*
X4935476Y-9955000D01*
X4945000Y-9964524D01*
X4954524Y-9983571D01*
X4964048Y-10021667D01*
X4964048Y-10069286D01*
X4954524Y-10107381D01*
X4945000Y-10126429D01*
X4935476Y-10135952D01*
X4916429Y-10145476D01*
X4897381Y-10145476D01*
X4878333Y-10135952D01*
X4868810Y-10126429D01*
X4859286Y-10107381D01*
X4849762Y-10069286D01*
X4849762Y-10021667D01*
X4859286Y-9983571D01*
X4868810Y-9964524D01*
X4878333Y-9955000D01*
X4897381Y-9945476D01*
X5049762Y-10145476D02*
X5049762Y-10012143D01*
X5049762Y-10031190D02*
X5059286Y-10021667D01*
X5078333Y-10012143D01*
X5106905Y-10012143D01*
X5125952Y-10021667D01*
X5135476Y-10040714D01*
X5135476Y-10145476D01*
X5135476Y-10040714D02*
X5145000Y-10021667D01*
X5164048Y-10012143D01*
X5192619Y-10012143D01*
X5211667Y-10021667D01*
X5221190Y-10040714D01*
X5221190Y-10145476D01*
X5316429Y-10145476D02*
X5316429Y-10012143D01*
X5316429Y-10031190D02*
X5325952Y-10021667D01*
X5345000Y-10012143D01*
X5373571Y-10012143D01*
X5392619Y-10021667D01*
X5402143Y-10040714D01*
X5402143Y-10145476D01*
X5402143Y-10040714D02*
X5411667Y-10021667D01*
X5430714Y-10012143D01*
X5459286Y-10012143D01*
X5478333Y-10021667D01*
X5487857Y-10040714D01*
X5487857Y-10145476D01*
X5878333Y-9935952D02*
X5706905Y-10193095D01*
X6135476Y-9945476D02*
X6154524Y-9945476D01*
X6173571Y-9955000D01*
X6183095Y-9964524D01*
X6192619Y-9983571D01*
X6202143Y-10021667D01*
X6202143Y-10069286D01*
X6192619Y-10107381D01*
X6183095Y-10126429D01*
X6173571Y-10135952D01*
X6154524Y-10145476D01*
X6135476Y-10145476D01*
X6116428Y-10135952D01*
X6106905Y-10126429D01*
X6097381Y-10107381D01*
X6087857Y-10069286D01*
X6087857Y-10021667D01*
X6097381Y-9983571D01*
X6106905Y-9964524D01*
X6116428Y-9955000D01*
X6135476Y-9945476D01*
X6287857Y-10126429D02*
X6297381Y-10135952D01*
X6287857Y-10145476D01*
X6278333Y-10135952D01*
X6287857Y-10126429D01*
X6287857Y-10145476D01*
X6421190Y-9945476D02*
X6440238Y-9945476D01*
X6459286Y-9955000D01*
X6468809Y-9964524D01*
X6478333Y-9983571D01*
X6487857Y-10021667D01*
X6487857Y-10069286D01*
X6478333Y-10107381D01*
X6468809Y-10126429D01*
X6459286Y-10135952D01*
X6440238Y-10145476D01*
X6421190Y-10145476D01*
X6402143Y-10135952D01*
X6392619Y-10126429D01*
X6383095Y-10107381D01*
X6373571Y-10069286D01*
X6373571Y-10021667D01*
X6383095Y-9983571D01*
X6392619Y-9964524D01*
X6402143Y-9955000D01*
X6421190Y-9945476D01*
X6668809Y-9945476D02*
X6573571Y-9945476D01*
X6564048Y-10040714D01*
X6573571Y-10031190D01*
X6592619Y-10021667D01*
X6640238Y-10021667D01*
X6659286Y-10031190D01*
X6668809Y-10040714D01*
X6678333Y-10059762D01*
X6678333Y-10107381D01*
X6668809Y-10126429D01*
X6659286Y-10135952D01*
X6640238Y-10145476D01*
X6592619Y-10145476D01*
X6573571Y-10135952D01*
X6564048Y-10126429D01*
X6773571Y-10145476D02*
X6811667Y-10145476D01*
X6830714Y-10135952D01*
X6840238Y-10126429D01*
X6859286Y-10097857D01*
X6868809Y-10059762D01*
X6868809Y-9983571D01*
X6859286Y-9964524D01*
X6849762Y-9955000D01*
X6830714Y-9945476D01*
X6792619Y-9945476D01*
X6773571Y-9955000D01*
X6764048Y-9964524D01*
X6754524Y-9983571D01*
X6754524Y-10031190D01*
X6764048Y-10050238D01*
X6773571Y-10059762D01*
X6792619Y-10069286D01*
X6830714Y-10069286D01*
X6849762Y-10059762D01*
X6859286Y-10050238D01*
X6868809Y-10031190D01*
X7059286Y-10145476D02*
X6945000Y-10145476D01*
X7002143Y-10145476D02*
X7002143Y-9945476D01*
X6983095Y-9974048D01*
X6964048Y-9993095D01*
X6945000Y-10002619D01*
X7135476Y-9945476D02*
X7135476Y-9983571D01*
X7211667Y-9945476D02*
X7211667Y-9983571D01*
X7506905Y-10221667D02*
X7497381Y-10212143D01*
X7478333Y-10183571D01*
X7468809Y-10164524D01*
X7459286Y-10135952D01*
X7449762Y-10088333D01*
X7449762Y-10050238D01*
X7459286Y-10002619D01*
X7468809Y-9974048D01*
X7478333Y-9955000D01*
X7497381Y-9926429D01*
X7506905Y-9916905D01*
X7668809Y-9945476D02*
X7630714Y-9945476D01*
X7611667Y-9955000D01*
X7602143Y-9964524D01*
X7583095Y-9993095D01*
X7573571Y-10031190D01*
X7573571Y-10107381D01*
X7583095Y-10126429D01*
X7592619Y-10135952D01*
X7611667Y-10145476D01*
X7649762Y-10145476D01*
X7668809Y-10135952D01*
X7678333Y-10126429D01*
X7687857Y-10107381D01*
X7687857Y-10059762D01*
X7678333Y-10040714D01*
X7668809Y-10031190D01*
X7649762Y-10021667D01*
X7611667Y-10021667D01*
X7592619Y-10031190D01*
X7583095Y-10040714D01*
X7573571Y-10059762D01*
X7925952Y-10145476D02*
X7925952Y-9945476D01*
X8011667Y-10145476D02*
X8011667Y-10040714D01*
X8002143Y-10021667D01*
X7983095Y-10012143D01*
X7954524Y-10012143D01*
X7935476Y-10021667D01*
X7925952Y-10031190D01*
X8135476Y-10145476D02*
X8116428Y-10135952D01*
X8106905Y-10126429D01*
X8097381Y-10107381D01*
X8097381Y-10050238D01*
X8106905Y-10031190D01*
X8116428Y-10021667D01*
X8135476Y-10012143D01*
X8164048Y-10012143D01*
X8183095Y-10021667D01*
X8192619Y-10031190D01*
X8202143Y-10050238D01*
X8202143Y-10107381D01*
X8192619Y-10126429D01*
X8183095Y-10135952D01*
X8164048Y-10145476D01*
X8135476Y-10145476D01*
X8316428Y-10145476D02*
X8297381Y-10135952D01*
X8287857Y-10116905D01*
X8287857Y-9945476D01*
X8468810Y-10135952D02*
X8449762Y-10145476D01*
X8411667Y-10145476D01*
X8392619Y-10135952D01*
X8383095Y-10116905D01*
X8383095Y-10040714D01*
X8392619Y-10021667D01*
X8411667Y-10012143D01*
X8449762Y-10012143D01*
X8468810Y-10021667D01*
X8478333Y-10040714D01*
X8478333Y-10059762D01*
X8383095Y-10078810D01*
X8554524Y-10135952D02*
X8573571Y-10145476D01*
X8611667Y-10145476D01*
X8630714Y-10135952D01*
X8640238Y-10116905D01*
X8640238Y-10107381D01*
X8630714Y-10088333D01*
X8611667Y-10078810D01*
X8583095Y-10078810D01*
X8564048Y-10069286D01*
X8554524Y-10050238D01*
X8554524Y-10040714D01*
X8564048Y-10021667D01*
X8583095Y-10012143D01*
X8611667Y-10012143D01*
X8630714Y-10021667D01*
X8706905Y-10221667D02*
X8716429Y-10212143D01*
X8735476Y-10183571D01*
X8745000Y-10164524D01*
X8754524Y-10135952D01*
X8764048Y-10088333D01*
X8764048Y-10050238D01*
X8754524Y-10002619D01*
X8745000Y-9974048D01*
X8735476Y-9955000D01*
X8716429Y-9926429D01*
X8706905Y-9916905D01*
M02*
